<svg width="30" height="30" viewBox="0 0 30 30" fill="none" xmlns="http://www.w3.org/2000/svg">
<path d="M6.22865 8.99624C7.73915 8.99624 8.96365 7.77174 8.96365 6.26124C8.96365 4.75075 7.73915 3.52625 6.22865 3.52625C4.71815 3.52625 3.49365 4.75075 3.49365 6.26124C3.49365 7.77174 4.71815 8.99624 6.22865 8.99624Z" fill="black"/>
<path d="M11.5462 11.0687V26.2425H16.2574V18.7387C16.2574 16.7587 16.6299 14.8412 19.0849 14.8412C21.5062 14.8412 21.5362 17.105 21.5362 18.8637V26.2437H26.2499V17.9225C26.2499 13.835 25.3699 10.6937 20.5924 10.6937C18.2987 10.6937 16.7612 11.9525 16.1324 13.1437H16.0687V11.0687H11.5462ZM3.86865 11.0687H8.5874V26.2425H3.86865V11.0687Z" fill="black"/>
</svg>
