<svg width="100" height="100" viewBox="0 0 100 100" fill="none" xmlns="http://www.w3.org/2000/svg">
<rect width="100" height="100" fill="#A62B28"/>
<path d="M66.6666 42.0666C66.6679 41.8473 66.6258 41.6298 66.5429 41.4268C66.46 41.2237 66.3377 41.039 66.1833 40.8833L59.1166 33.8166C58.9609 33.6621 58.7762 33.5399 58.5731 33.457C58.3701 33.3741 58.1526 33.332 57.9333 33.3333C57.7139 33.332 57.4965 33.3741 57.2934 33.457C57.0904 33.5399 56.9057 33.6621 56.7499 33.8166L52.0333 38.5333L33.8166 56.7499C33.6621 56.9057 33.5399 57.0904 33.457 57.2934C33.3741 57.4965 33.332 57.7139 33.3333 57.9333V64.9999C33.3333 65.442 33.5089 65.8659 33.8214 66.1785C34.134 66.491 34.5579 66.6666 34.9999 66.6666H42.0666C42.2998 66.6793 42.5331 66.6428 42.7513 66.5596C42.9695 66.4763 43.1678 66.3481 43.3333 66.1833L61.4499 47.9666L66.1833 43.3333C66.3354 43.1717 66.4594 42.9858 66.5499 42.7833C66.566 42.6504 66.566 42.5161 66.5499 42.3833C66.5577 42.3057 66.5577 42.2275 66.5499 42.1499L66.6666 42.0666ZM41.3833 63.3333H36.6666V58.6166L53.2166 42.0666L57.9333 46.7833L41.3833 63.3333ZM60.2833 44.4333L55.5666 39.7166L57.9333 37.3666L62.6333 42.0666L60.2833 44.4333Z" fill="white"/>
</svg>
